<?xml version="1.0" encoding="UTF-8" standalone="no"?>
<svg
   xmlns:dc="http://purl.org/dc/elements/1.1/"
   xmlns:cc="http://creativecommons.org/ns#"
   xmlns:rdf="http://www.w3.org/1999/02/22-rdf-syntax-ns#"
   xmlns:svg="http://www.w3.org/2000/svg"
   xmlns="http://www.w3.org/2000/svg"
   viewBox="0 0 16 16"
   height="252"
   width="269.17892"
   xml:space="preserve"
   id="svg2"
   version="1.1"><metadata
     id="metadata8"><rdf:RDF><cc:Work
         rdf:about=""><dc:format>image/svg+xml</dc:format><dc:type
           rdf:resource="http://purl.org/dc/dcmitype/StillImage" /><dc:title></dc:title></cc:Work></rdf:RDF></metadata><defs
     id="defs6"><clipPath
       id="clipPath18"
       clipPathUnits="userSpaceOnUse"><path
         id="path16"
         d="M 0,612 H 792 V 0 H 0 Z" /></clipPath></defs>
	   <g transform="scale(0.128)"><g
     transform="matrix(1.3333333,0,0,-1.3333333,-300.43875,476.97128)"
     id="g10"><g
       transform="matrix(1.3071121,0,0,1.3071121,-69.431622,-52.048892)"
       id="g70"><path
         d="m 333.21407,259.95247 c -2.569,2.242 -5.555,3.15 -5.555,3.15 l -7.428,0.437 c 0,0 -1.636,0.518 -3.287,1.032 -1.654,0.512 -3.325,1.026 -3.398,1.026 -0.041,0.079 -0.296,0.225 -0.566,0.37 -0.274,0.141 -0.569,0.277 -0.689,0.339 -0.941,0.499 -2.826,0.978 -4.767,1.325 -1.94,0.347 -3.938,0.551 -5.11,0.504 -1.307,0.044 -3.247,-0.189 -5.082,-0.549 -1.832,-0.355 -3.556,-0.842 -4.424,-1.301 -0.119,-0.062 -0.417,-0.201 -0.688,-0.342 -0.275,-0.141 -0.528,-0.289 -0.569,-0.366 -0.073,0 -1.744,-0.516 -3.395,-1.027 -1.653,-0.519 -3.288,-1.032 -3.288,-1.032 l -7.43,-0.439 c 0,0 -2.986,-0.91 -5.554,-3.154 -2.567,-2.235 -4.72,-5.806 -3.042,-11.121 0,-0.072 0.874,-1.856 1.749,-3.624 0.875,-1.768 1.747,-3.518 1.747,-3.518 l 1.75,-5.972 0.8,-3.275 0.803,-3.278 2.182,-7.141 1.388,-5.535 1.383,-5.533 0.236,-0.713 0.333,-0.311 c 0.022,-0.032 0.048,-0.049 0.079,-0.072 l 0.081,-0.071 h 13.401 c 0,0 0.025,0.014 0.066,0.029 1.523,0.052 2.74,1.297 2.74,2.832 0,1.567 -1.27,2.833 -2.835,2.833 l -6.903,0.008 1.979,19.5 c 0,0 -1.421,0.363 -2.985,1.589 -1.569,1.219 -3.281,3.294 -3.861,6.717 h 12.236 l -1.819,-22.113 18.215,0.025 -1.823,22.109 h 12.239 c -0.582,-3.42 -2.296,-5.501 -3.861,-6.72 -1.568,-1.219 -2.986,-1.581 -2.986,-1.581 l 1.972,-19.45 -6.786,-0.026 c -1.564,-0.01 -2.831,-1.28 -2.827,-2.845 0.006,-1.461 1.118,-2.666 2.541,-2.811 0.089,-0.048 0.147,-0.077 0.147,-0.077 l 13.564,0.018 0.495,0.266 0.274,1.099 2.567,10.858 2.186,7.139 1.601,6.553 1.749,5.973 c 0,0 0.875,1.748 1.745,3.516 0.875,1.764 1.75,3.55 1.75,3.625 1.677,5.315 -0.474,8.88 -3.04,11.125 m -21.725,-54.757 h -17.481 c -1.811,0 -3.279,-1.465 -3.279,-3.279 0,-1.807 1.468,-3.274 3.279,-3.274 h 17.481 c 1.812,0 3.276,1.467 3.276,3.274 0,1.814 -1.464,3.279 -3.276,3.279"
         style="fill:#000000;stroke:none;" transform="translate(-41.5, 44.5)"
         id="path24" /></g></g></g></svg>